HIERARCHY
ROOT mixamorig:Hips
{
	OFFSET -0.000008 104.274872 1.554316
	CHANNELS 6 Xposition Yposition Zposition Xrotation Yrotation Zrotation
	JOINT mixamorig:Spine
	{
		OFFSET -0.000005 10.181595 0.131519
		CHANNELS 6 Xposition Yposition Zposition Xrotation Yrotation Zrotation
		JOINT mixamorig:Spine1
		{
			OFFSET -0.000000 9.893959 -1.470707
			CHANNELS 6 Xposition Yposition Zposition Xrotation Yrotation Zrotation
			JOINT mixamorig:Spine2
			{
				OFFSET -0.000000 9.220757 -1.370641
				CHANNELS 6 Xposition Yposition Zposition Xrotation Yrotation Zrotation
				JOINT mixamorig:Neck
				{
					OFFSET 0.000001 16.740417 -2.049036
					CHANNELS 6 Xposition Yposition Zposition Xrotation Yrotation Zrotation
					JOINT mixamorig:Head
					{
						OFFSET 0.000000 9.617874 1.685006
						CHANNELS 6 Xposition Yposition Zposition Xrotation Yrotation Zrotation
						JOINT mixamorig:HeadTop_End
						{
							OFFSET 0.000002 22.037354 7.501101
							CHANNELS 6 Xposition Yposition Zposition Xrotation Yrotation Zrotation
							End Site
							{
								OFFSET 0.000168 2310.654297 -282.823242
							}
						}
					}
				}
				JOINT mixamorig:RightShoulder
				{
					OFFSET -4.569970 11.014908 -2.160885
					CHANNELS 6 Xposition Yposition Zposition Xrotation Yrotation Zrotation
					JOINT mixamorig:RightArm
					{
						OFFSET -10.592851 -0.524811 -2.232101
						CHANNELS 6 Xposition Yposition Zposition Xrotation Yrotation Zrotation
						JOINT mixamorig:RightForeArm
						{
							OFFSET -27.841511 0.000031 -0.000004
							CHANNELS 6 Xposition Yposition Zposition Xrotation Yrotation Zrotation
							JOINT mixamorig:RightHand
							{
								OFFSET -28.328831 -0.000015 0.000015
								CHANNELS 6 Xposition Yposition Zposition Xrotation Yrotation Zrotation
								JOINT mixamorig:RightHandThumb1
								{
									OFFSET -2.464806 -1.573990 2.681852
									CHANNELS 6 Xposition Yposition Zposition Xrotation Yrotation Zrotation
									JOINT mixamorig:RightHandThumb2
									{
										OFFSET -3.215179 -1.872803 1.924282
										CHANNELS 6 Xposition Yposition Zposition Xrotation Yrotation Zrotation
										JOINT mixamorig:RightHandThumb3
										{
											OFFSET -2.654831 -1.527969 1.512609
											CHANNELS 6 Xposition Yposition Zposition Xrotation Yrotation Zrotation
											JOINT mixamorig:RightHandThumb4
											{
												OFFSET -2.018814 -1.152008 1.108052
												CHANNELS 6 Xposition Yposition Zposition Xrotation Yrotation Zrotation
												End Site
												{
													OFFSET -188.809540 -114.533607 132.431396
												}
											}
										}
									}
								}
								JOINT mixamorig:RightHandIndex1
								{
									OFFSET -9.108284 -0.517868 2.259835
									CHANNELS 6 Xposition Yposition Zposition Xrotation Yrotation Zrotation
									JOINT mixamorig:RightHandIndex2
									{
										OFFSET -3.699989 0.000000 0.001215
										CHANNELS 6 Xposition Yposition Zposition Xrotation Yrotation Zrotation
										JOINT mixamorig:RightHandIndex3
										{
											OFFSET -2.850006 0.000031 -0.000522
											CHANNELS 6 Xposition Yposition Zposition Xrotation Yrotation Zrotation
											JOINT mixamorig:RightHandIndex4
											{
												OFFSET -2.772186 -0.000015 -0.000020
												CHANNELS 6 Xposition Yposition Zposition Xrotation Yrotation Zrotation
												End Site
												{
													OFFSET -277.218445 0.000000 -0.050231
												}
											}
										}
									}
								}
								JOINT mixamorig:RightHandMiddle1
								{
									OFFSET -9.532516 -0.000031 -0.000023
									CHANNELS 6 Xposition Yposition Zposition Xrotation Yrotation Zrotation
									JOINT mixamorig:RightHandMiddle2
									{
										OFFSET -3.700005 -0.000015 0.003713
										CHANNELS 6 Xposition Yposition Zposition Xrotation Yrotation Zrotation
										JOINT mixamorig:RightHandMiddle3
										{
											OFFSET -2.949974 0.000015 -0.002054
											CHANNELS 6 Xposition Yposition Zposition Xrotation Yrotation Zrotation
											JOINT mixamorig:RightHandMiddle4
											{
												OFFSET -2.946640 0.000000 -0.000156
												CHANNELS 6 Xposition Yposition Zposition Xrotation Yrotation Zrotation
												End Site
												{
													OFFSET -294.664337 0.000000 -0.113670
												}
											}
										}
									}
								}
								JOINT mixamorig:RightHandRing1
								{
									OFFSET -9.103600 -0.043076 -1.865134
									CHANNELS 6 Xposition Yposition Zposition Xrotation Yrotation Zrotation
									JOINT mixamorig:RightHandRing2
									{
										OFFSET -3.379288 0.000000 -0.001055
										CHANNELS 6 Xposition Yposition Zposition Xrotation Yrotation Zrotation
										JOINT mixamorig:RightHandRing3
										{
											OFFSET -2.889687 -0.000015 0.000379
											CHANNELS 6 Xposition Yposition Zposition Xrotation Yrotation Zrotation
											JOINT mixamorig:RightHandRing4
											{
												OFFSET -2.638809 -0.000015 0.000941
												CHANNELS 6 Xposition Yposition Zposition Xrotation Yrotation Zrotation
												End Site
												{
													OFFSET -263.880371 0.000000 0.516020
												}
											}
										}
									}
								}
								JOINT mixamorig:RightHandPinky1
								{
									OFFSET -8.076683 -0.486710 -3.806280
									CHANNELS 6 Xposition Yposition Zposition Xrotation Yrotation Zrotation
									JOINT mixamorig:RightHandPinky2
									{
										OFFSET -3.600014 -0.000015 -0.003747
										CHANNELS 6 Xposition Yposition Zposition Xrotation Yrotation Zrotation
										JOINT mixamorig:RightHandPinky3
										{
											OFFSET -2.099983 0.000000 -0.005739
											CHANNELS 6 Xposition Yposition Zposition Xrotation Yrotation Zrotation
											JOINT mixamorig:RightHandPinky4
											{
												OFFSET -2.115768 -0.000031 -0.003680
												CHANNELS 6 Xposition Yposition Zposition Xrotation Yrotation Zrotation
												End Site
												{
													OFFSET -211.577087 0.000000 -0.350686
												}
											}
										}
									}
								}
							}
						}
					}
				}
				JOINT mixamorig:LeftShoulder
				{
					OFFSET 4.570447 11.014725 -2.160855
					CHANNELS 6 Xposition Yposition Zposition Xrotation Yrotation Zrotation
					JOINT mixamorig:LeftArm
					{
						OFFSET 10.592371 -0.524597 -2.232119
						CHANNELS 6 Xposition Yposition Zposition Xrotation Yrotation Zrotation
						JOINT mixamorig:LeftForeArm
						{
							OFFSET 27.841532 -0.000031 0.000026
							CHANNELS 6 Xposition Yposition Zposition Xrotation Yrotation Zrotation
							JOINT mixamorig:LeftHand
							{
								OFFSET 28.328846 -0.000061 0.000022
								CHANNELS 6 Xposition Yposition Zposition Xrotation Yrotation Zrotation
								JOINT mixamorig:LeftHandThumb1
								{
									OFFSET 2.466141 -1.576172 2.681732
									CHANNELS 6 Xposition Yposition Zposition Xrotation Yrotation Zrotation
									JOINT mixamorig:LeftHandThumb2
									{
										OFFSET 3.217812 -1.872070 1.916482
										CHANNELS 6 Xposition Yposition Zposition Xrotation Yrotation Zrotation
										JOINT mixamorig:LeftHandThumb3
										{
											OFFSET 2.656029 -1.528778 1.514513
											CHANNELS 6 Xposition Yposition Zposition Xrotation Yrotation Zrotation
											JOINT mixamorig:LeftHandThumb4
											{
												OFFSET 2.020889 -1.154053 1.115139
												CHANNELS 6 Xposition Yposition Zposition Xrotation Yrotation Zrotation
												End Site
												{
													OFFSET 190.885437 -115.081749 130.048782
												}
											}
										}
									}
								}
								JOINT mixamorig:LeftHandIndex1
								{
									OFFSET 9.109314 -0.518021 2.259871
									CHANNELS 6 Xposition Yposition Zposition Xrotation Yrotation Zrotation
									JOINT mixamorig:LeftHandIndex2
									{
										OFFSET 3.699989 0.000000 -0.000322
										CHANNELS 6 Xposition Yposition Zposition Xrotation Yrotation Zrotation
										JOINT mixamorig:LeftHandIndex3
										{
											OFFSET 2.850006 0.000000 0.000352
											CHANNELS 6 Xposition Yposition Zposition Xrotation Yrotation Zrotation
											JOINT mixamorig:LeftHandIndex4
											{
												OFFSET 2.774864 -0.000031 -0.000027
												CHANNELS 6 Xposition Yposition Zposition Xrotation Yrotation Zrotation
												End Site
												{
													OFFSET 277.486267 0.000000 -0.009857
												}
											}
										}
									}
								}
								JOINT mixamorig:LeftHandMiddle1
								{
									OFFSET 9.533394 0.000061 0.000044
									CHANNELS 6 Xposition Yposition Zposition Xrotation Yrotation Zrotation
									JOINT mixamorig:LeftHandMiddle2
									{
										OFFSET 3.699989 -0.000015 -0.000231
										CHANNELS 6 Xposition Yposition Zposition Xrotation Yrotation Zrotation
										JOINT mixamorig:LeftHandMiddle3
										{
											OFFSET 2.949997 -0.000015 -0.000059
											CHANNELS 6 Xposition Yposition Zposition Xrotation Yrotation Zrotation
											JOINT mixamorig:LeftHandMiddle4
											{
												OFFSET 2.952896 0.000031 0.000063
												CHANNELS 6 Xposition Yposition Zposition Xrotation Yrotation Zrotation
												End Site
												{
													OFFSET 295.289337 0.000000 0.022810
												}
											}
										}
									}
								}
								JOINT mixamorig:LeftHandRing1
								{
									OFFSET 9.104523 -0.042999 -1.865074
									CHANNELS 6 Xposition Yposition Zposition Xrotation Yrotation Zrotation
									JOINT mixamorig:LeftHandRing2
									{
										OFFSET 3.150009 -0.000031 0.000043
										CHANNELS 6 Xposition Yposition Zposition Xrotation Yrotation Zrotation
										JOINT mixamorig:LeftHandRing3
										{
											OFFSET 2.949982 -0.000015 0.000040
											CHANNELS 6 Xposition Yposition Zposition Xrotation Yrotation Zrotation
											JOINT mixamorig:LeftHandRing4
											{
												OFFSET 2.644348 0.000000 0.000057
												CHANNELS 6 Xposition Yposition Zposition Xrotation Yrotation Zrotation
												End Site
												{
													OFFSET 264.434631 0.000000 0.012105
												}
											}
										}
									}
								}
								JOINT mixamorig:LeftHandPinky1
								{
									OFFSET 8.077789 -0.486847 -3.806259
									CHANNELS 6 Xposition Yposition Zposition Xrotation Yrotation Zrotation
									JOINT mixamorig:LeftHandPinky2
									{
										OFFSET 3.599953 0.000031 0.014727
										CHANNELS 6 Xposition Yposition Zposition Xrotation Yrotation Zrotation
										JOINT mixamorig:LeftHandPinky3
										{
											OFFSET 2.100021 0.000015 0.007705
											CHANNELS 6 Xposition Yposition Zposition Xrotation Yrotation Zrotation
											JOINT mixamorig:LeftHandPinky4
											{
												OFFSET 2.125504 0.000031 0.007517
												CHANNELS 6 Xposition Yposition Zposition Xrotation Yrotation Zrotation
												End Site
												{
													OFFSET 212.550781 0.000000 0.625752
												}
											}
										}
									}
								}
							}
						}
					}
				}
			}
		}
	}
	JOINT mixamorig:RightUpLeg
	{
		OFFSET -8.207787 -6.751648 -1.599560
		CHANNELS 6 Xposition Yposition Zposition Xrotation Yrotation Zrotation
		JOINT mixamorig:RightLeg
		{
			OFFSET -0.000002 -44.370117 0.345942
			CHANNELS 6 Xposition Yposition Zposition Xrotation Yrotation Zrotation
			JOINT mixamorig:RightFoot
			{
				OFFSET 0.000003 -44.423679 -3.043532
				CHANNELS 6 Xposition Yposition Zposition Xrotation Yrotation Zrotation
				JOINT mixamorig:RightToeBase
				{
					OFFSET -0.000002 -8.728671 10.710558
					CHANNELS 6 Xposition Yposition Zposition Xrotation Yrotation Zrotation
					JOINT mixamorig:RightToe_End
					{
						OFFSET -0.000001 -0.000679 9.278119
						CHANNELS 6 Xposition Yposition Zposition Xrotation Yrotation Zrotation
						End Site
						{
							OFFSET 0.000000 -0.067690 927.812134
						}
					}
				}
			}
		}
	}
	JOINT mixamorig:LeftUpLeg
	{
		OFFSET 8.207793 -6.751686 -1.599556
		CHANNELS 6 Xposition Yposition Zposition Xrotation Yrotation Zrotation
		JOINT mixamorig:LeftLeg
		{
			OFFSET -0.000004 -44.370014 0.346954
			CHANNELS 6 Xposition Yposition Zposition Xrotation Yrotation Zrotation
			JOINT mixamorig:LeftFoot
			{
				OFFSET -0.000001 -44.423672 -3.044401
				CHANNELS 6 Xposition Yposition Zposition Xrotation Yrotation Zrotation
				JOINT mixamorig:LeftToeBase
				{
					OFFSET -0.000002 -8.728669 10.710558
					CHANNELS 6 Xposition Yposition Zposition Xrotation Yrotation Zrotation
					JOINT mixamorig:LeftToe_End
					{
						OFFSET -0.000003 -0.000679 9.278133
						CHANNELS 6 Xposition Yposition Zposition Xrotation Yrotation Zrotation
						End Site
						{
							OFFSET 0.000000 -0.068021 927.813477
						}
					}
				}
			}
		}
	}
}
MOTION
Frames: 3
Frame Time: 0.033333
0.000006 104.270477 1.554256 0.000010 0.000003 -0.000113 -0.000005 10.181587 0.131522 0.000001 -0.000003 0.000084 -0.000000 9.893967 -1.470711 0.000001 0.000000 -0.000000 -0.000000 9.220802 -1.370642 0.000000 -0.000000 -0.000000 0.000001 16.740433 -2.049030 0.000000 -0.000000 -0.000000 0.000000 9.617859 1.685014 0.000000 0.000000 0.000000 0.000002 22.037384 7.501101 0.000000 -0.000000 0.000000 -4.569968 11.014880 -2.160881 0.000008 0.000001 -0.000038 -10.592811 -0.524828 -2.231771 35.935620 65.260873 -23.460472 -27.841507 0.000038 0.000570 22.524658 97.967999 -25.791324 -28.328835 0.000021 0.000027 -0.000319 -0.000046 0.000006 -2.464376 -1.574007 2.682306 -15.529285 -129.962749 36.951245 -3.214903 -1.872414 1.924618 123.538779 7.885757 119.008424 -2.654611 -1.527634 1.513005 125.733524 11.169825 -245.617154 -2.018826 -1.151993 1.108056 0.000001 0.000001 0.000002 -9.108351 -0.517578 2.260243 128.808693 9.220716 -19.203080 -3.700019 -0.000178 0.001503 -72.926954 4.206788 3.096357 -2.850004 -0.000170 -0.000348 -52.891629 -3.328928 -1.656579 -2.772161 -0.000014 -0.000016 -0.000002 0.000000 -0.000001 -9.532551 0.000267 0.000418 135.073561 6.072271 -14.934847 -3.699983 -0.000214 0.004013 278.420285 -8.295112 -7.239087 -2.949961 -0.000163 -0.001942 -46.225798 -7.612873 -3.256134 -2.946623 0.000001 -0.000159 -0.000001 -0.000001 -0.000001 -9.103624 -0.042767 -1.864682 140.694056 2.467838 -6.796650 -3.379144 -0.000236 -0.000818 -85.817359 -26.969149 -25.112471 -2.889651 -0.000155 0.000464 316.137082 -15.701611 -6.332743 -2.638819 -0.000015 0.000939 -0.000001 0.000002 0.000004 -8.076640 -0.486369 -3.805815 141.419217 -1.918207 5.802294 -3.599817 -0.000291 -0.003460 88.519293 -144.376347 143.058107 -2.099894 -0.000196 -0.005710 317.288925 -20.322418 -8.134085 -2.115761 -0.000026 -0.003676 -0.000003 -0.000000 -0.000003 4.570446 11.014691 -2.160851 -0.000018 0.000010 -0.000021 10.592489 -0.524556 -2.232363 42.049599 -63.765813 26.892343 27.841766 -0.000021 -0.000138 56.307837 -93.992275 59.695437 28.328829 -0.000042 0.000018 0.000021 -0.000088 0.000001 2.466135 -1.576188 2.681871 24.788920 127.435019 -83.596338 3.217470 -1.871922 1.916530 127.525847 11.186052 209.387509 2.655837 -1.528427 1.514435 141.551928 -32.218194 314.660149 2.020883 -1.154086 1.115143 -0.000001 0.000003 0.000006 9.109414 -0.517758 2.259800 130.066541 -13.264996 28.018268 3.699962 0.000082 -0.000096 -71.447494 -16.368588 -11.817827 2.849996 0.000037 0.000517 -49.952520 -0.181984 -0.084263 2.774890 -0.000016 -0.000028 -0.000001 0.000001 -0.000001 9.533479 0.000338 -0.000021 137.637123 -9.101068 23.191412 3.700003 0.000093 -0.000011 -68.181113 1.097524 0.744377 2.950012 0.000011 0.000069 -42.766594 1.958068 0.765755 2.952872 -0.000017 0.000063 -0.000000 0.000000 0.000003 9.104581 -0.042708 -1.865136 141.937301 -5.457997 15.740541 3.150029 0.000048 0.000174 -67.073981 25.711228 17.201785 2.949990 0.000022 0.000128 -46.399767 15.198057 6.544336 2.644330 0.000033 0.000048 0.000002 -0.000003 0.000001 8.077839 -0.486524 -3.806312 145.462143 -2.904398 10.980129 3.599970 0.000061 0.014867 -67.440782 26.167525 17.236758 2.100004 0.000028 0.007817 -45.108871 16.169631 6.521475 2.125507 0.000000 0.007504 0.000001 -0.000002 -0.000001 -8.207786 -6.751667 -1.599560 -0.077001 -0.000003 0.000080 -0.000002 -44.370110 0.345938 0.153719 -0.000000 -0.000000 0.000000 -44.423679 -3.043532 -0.076700 0.000000 -0.000002 -0.000006 -8.728667 10.710559 -0.000009 -0.000000 -0.000000 -0.000001 -0.000679 9.278123 0.000000 -0.000000 -0.000000 8.207792 -6.751710 -1.599556 -0.074518 -0.000003 0.000081 -0.000002 -44.370014 0.346960 0.148822 0.000002 0.000000 -0.000001 -44.423664 -3.044403 -0.074314 0.000000 -0.000002 -0.000004 -8.728671 10.710558 0.000007 -0.000000 -0.000000 0.000000 -0.000680 9.278137 -0.000000 0.000000 -0.000001 
0.000006 104.270477 1.554256 0.000010 0.000003 -0.000113 -0.000005 10.181587 0.131522 0.000001 -0.000003 0.000084 -0.000000 9.893967 -1.470711 0.000001 0.000000 -0.000000 -0.000000 9.220802 -1.370642 0.000000 -0.000000 -0.000000 0.000001 16.740433 -2.049030 0.000000 -0.000000 -0.000000 0.000000 9.617859 1.685014 0.000000 0.000000 0.000000 0.000002 22.037384 7.501101 0.000000 -0.000000 0.000000 -4.569968 11.014880 -2.160881 0.000008 0.000001 -0.000038 -10.592813 -0.524823 -2.231774 35.044089 64.756142 -22.641213 -27.841511 0.000008 0.000573 21.793044 98.247162 -25.079324 -28.328835 0.000005 0.000028 -0.000321 -0.000044 0.000006 -2.464400 -1.574021 2.682318 -10.797692 -131.518366 44.348702 -3.214896 -1.872396 1.924613 124.670200 11.549110 116.568830 -2.654747 -1.527632 1.512972 129.274458 21.893627 -265.893063 -2.018846 -1.152013 1.108065 -0.000003 -0.000002 0.000004 -9.108349 -0.517549 2.260251 130.445084 8.816871 -19.058885 -3.700012 -0.000191 0.001487 -72.585397 -0.807044 -0.607026 -2.849990 -0.000158 -0.000373 -51.780518 -6.315395 -3.068075 -2.772169 0.000001 -0.000018 0.000001 -0.000001 -0.000001 -9.532560 0.000258 0.000421 135.403501 6.571501 -16.258038 -3.699958 -0.000216 0.003999 277.912037 -11.535373 -10.133622 -2.949938 -0.000181 -0.001932 -47.009013 -11.223556 -4.897174 -2.946619 0.000016 -0.000158 0.000001 0.000001 0.000000 -9.103635 -0.042750 -1.864663 141.554974 4.132217 -11.701294 -3.379137 -0.000238 -0.000798 -86.050473 -28.255147 -26.420831 -2.889619 -0.000164 0.000441 316.521676 -19.197111 -7.691663 -2.638806 -0.000031 0.000943 -0.000001 -0.000000 0.000002 -8.076665 -0.486379 -3.805812 141.542147 -0.059585 0.516029 -3.599814 -0.000266 -0.003474 86.497119 -145.074625 142.558260 -2.099866 -0.000190 -0.005692 315.695360 -21.870783 -9.118248 -2.115777 -0.000038 -0.003683 -0.000002 0.000001 -0.000003 4.570446 11.014691 -2.160851 -0.000018 0.000010 -0.000021 10.592487 -0.524550 -2.232358 41.926112 -64.090520 26.972463 27.841776 -0.000026 -0.000146 56.190552 -93.405152 59.067701 28.328833 -0.000044 0.000019 0.000019 -0.000092 -0.000000 2.466131 -1.576187 2.681873 13.612498 127.791924 -71.796182 3.217467 -1.871883 1.916524 125.565884 2.330080 220.340304 2.655985 -1.528476 1.514421 152.150865 -31.997162 350.458290 2.020892 -1.154053 1.115137 0.000004 0.000009 0.000002 9.109415 -0.517767 2.259789 128.780171 -14.164505 29.036852 3.699966 0.000113 -0.000105 -75.694055 -16.392669 -12.778869 2.850007 0.000051 0.000525 -51.783813 0.286088 0.139406 2.774877 -0.000028 -0.000027 0.000000 -0.000002 0.000001 9.533491 0.000337 -0.000023 139.146362 -8.726894 23.134619 3.700006 0.000107 -0.000027 -73.080859 2.772761 2.056691 2.950012 0.000011 0.000056 -41.152761 2.895129 1.086051 2.952855 -0.000017 0.000063 0.000000 0.000001 -0.000002 9.104588 -0.042669 -1.865135 144.543359 -4.431778 13.808216 3.150027 0.000067 0.000153 -71.895603 28.738236 21.046241 2.949987 -0.000004 0.000141 -43.671588 16.292366 6.564611 2.644332 0.000019 0.000055 -0.000000 0.000000 -0.000003 8.077811 -0.486494 -3.806298 148.627484 -1.156977 5.880364 3.599990 0.000063 0.014866 -75.481199 32.964163 25.326067 2.100002 0.000015 0.007803 -41.048177 19.266297 7.046952 2.125504 -0.000015 0.007525 0.000001 -0.000002 -0.000003 -8.207786 -6.751667 -1.599560 -0.077001 -0.000003 0.000080 -0.000002 -44.370110 0.345938 0.153719 -0.000000 -0.000000 0.000000 -44.423679 -3.043532 -0.076700 0.000000 -0.000002 -0.000006 -8.728667 10.710559 -0.000009 -0.000000 -0.000000 -0.000001 -0.000679 9.278123 0.000000 -0.000000 -0.000000 8.207792 -6.751710 -1.599556 -0.074518 -0.000003 0.000081 -0.000002 -44.370014 0.346960 0.148822 0.000002 0.000000 -0.000001 -44.423664 -3.044403 -0.074314 0.000000 -0.000002 -0.000004 -8.728671 10.710558 0.000007 -0.000000 -0.000000 0.000000 -0.000680 9.278137 -0.000000 0.000000 -0.000001 
0.000006 104.270477 1.554256 0.000010 0.000003 -0.000113 -0.000005 10.181587 0.131522 0.000001 -0.000003 0.000084 -0.000000 9.893967 -1.470711 0.000001 0.000000 -0.000000 -0.000000 9.220802 -1.370642 0.000000 -0.000000 -0.000000 0.000001 16.740433 -2.049030 0.000000 -0.000000 -0.000000 0.000000 9.617859 1.685014 0.000000 0.000000 0.000000 0.000002 22.037384 7.501101 0.000000 -0.000000 0.000000 -4.569968 11.014880 -2.160881 0.000008 0.000001 -0.000038 -10.592813 -0.524828 -2.231772 35.266152 65.006223 -22.897371 -27.841511 -0.000003 0.000570 22.915795 98.511299 -26.479204 -28.328829 0.000036 0.000028 -0.000321 -0.000045 0.000007 -2.464394 -1.574033 2.682292 -12.893721 -130.797931 41.057538 -3.214870 -1.872397 1.924610 123.887037 8.208212 119.933655 -2.654685 -1.527613 1.512971 128.034806 19.893039 -263.338708 -2.018838 -1.152016 1.108066 -0.000002 -0.000002 0.000004 -9.108348 -0.517558 2.260232 127.244758 9.057575 -18.237408 -3.700017 -0.000205 0.001490 -70.558190 1.552212 1.085035 -2.849997 -0.000162 -0.000360 -53.479568 -5.022836 -2.532246 -2.772164 0.000001 -0.000021 0.000001 0.000002 -0.000003 -9.532536 0.000244 0.000399 132.431330 5.758136 -13.312323 -3.699959 -0.000218 0.003968 279.587537 -11.058177 -9.434772 -2.949943 -0.000182 -0.001929 -47.450496 -9.415948 -4.149004 -2.946633 0.000000 -0.000157 0.000001 0.000003 0.000000 -9.103628 -0.042774 -1.864691 138.672771 2.669852 -6.970536 -3.379147 -0.000267 -0.000796 -85.414575 -28.737949 -26.588103 -2.889637 -0.000171 0.000465 316.178609 -17.086601 -6.892336 -2.638809 -0.000016 0.000941 0.000001 -0.000002 0.000000 -8.076657 -0.486391 -3.805824 140.827367 -1.112433 3.454170 -3.599812 -0.000299 -0.003458 86.546550 -145.621955 143.163825 -2.099871 -0.000213 -0.005693 316.872966 -21.086986 -8.532603 -2.115757 -0.000028 -0.003677 0.000000 -0.000003 -0.000005 4.570446 11.014691 -2.160851 -0.000018 0.000010 -0.000021 10.592487 -0.524581 -2.232367 41.884226 -64.761586 27.283090 27.841766 -0.000046 -0.000140 55.145489 -93.579896 58.136910 28.328840 -0.000044 0.000022 0.000020 -0.000088 -0.000000 2.466132 -1.576180 2.681882 14.119633 130.658295 -74.368193 3.217451 -1.871853 1.916514 125.216014 -2.193624 225.741399 2.655956 -1.528436 1.514415 149.384802 -32.859938 338.746046 2.020887 -1.154088 1.115149 0.000001 0.000003 0.000004 9.109395 -0.517760 2.259792 128.407324 -12.734305 25.974933 3.699988 0.000107 -0.000100 -73.644957 -9.331735 -7.002190 2.850013 0.000027 0.000512 -51.733711 4.096825 1.987608 2.774888 -0.000048 -0.000025 0.000001 -0.000000 -0.000000 9.533484 0.000373 -0.000011 137.234019 -8.591330 21.697571 3.700021 0.000090 -0.000046 -72.439572 7.338535 5.380160 2.950018 0.000013 0.000074 -43.586637 6.562620 2.625243 2.952873 -0.000015 0.000065 0.000000 -0.000000 0.000000 9.104567 -0.042670 -1.865129 142.950286 -3.746279 11.154174 3.150030 0.000045 0.000160 -74.099322 30.882478 23.555711 2.949995 -0.000007 0.000123 -44.318311 18.202003 7.464499 2.644331 0.000017 0.000060 -0.000001 -0.000001 0.000001 8.077797 -0.486492 -3.806308 148.546519 -0.186585 2.368216 3.599981 0.000054 0.014877 -78.355042 32.669263 26.374289 2.099998 0.000003 0.007817 -40.309820 19.935801 7.157827 2.125523 -0.000004 0.007506 0.000002 -0.000000 -0.000005 -8.207786 -6.751667 -1.599560 -0.077001 -0.000003 0.000080 -0.000002 -44.370110 0.345938 0.153719 -0.000000 -0.000000 0.000000 -44.423679 -3.043532 -0.076700 0.000000 -0.000002 -0.000006 -8.728667 10.710559 -0.000009 -0.000000 -0.000000 -0.000001 -0.000679 9.278123 0.000000 -0.000000 -0.000000 8.207792 -6.751710 -1.599556 -0.074518 -0.000003 0.000081 -0.000002 -44.370014 0.346960 0.148822 0.000002 0.000000 -0.000001 -44.423664 -3.044403 -0.074314 0.000000 -0.000002 -0.000004 -8.728671 10.710558 0.000007 -0.000000 -0.000000 0.000000 -0.000680 9.278137 -0.000000 0.000000 -0.000001 
